<mxfile host="app.diagrams.net" agent="Mozilla/5.0 (Windows NT 10.0; Win64; x64) AppleWebKit/537.36 (KHTML, like Gecko) Chrome/129.0.0.0 Safari/537.36" version="24.7.10">
  <diagram name="PÃ¡gina-1" id="01kVo75OpnecWyAcS5QL">
    <mxGraphModel dx="1462" dy="501" grid="1" gridSize="10" guides="1" tooltips="1" connect="1" arrows="1" fold="1" page="1" pageScale="1" pageWidth="827" pageHeight="1169" math="0" shadow="0">
      <root>
        <mxCell id="0" />
        <mxCell id="1" parent="0" />
        <mxCell id="5PtUK91K7ZAc5KCXhvZP-4" value="&lt;h3&gt;&lt;br&gt;&lt;/h3&gt;&lt;h3&gt;&lt;br&gt;&lt;/h3&gt;&lt;h3&gt;&lt;br&gt;&lt;/h3&gt;&lt;h3&gt;&lt;br&gt;&lt;/h3&gt;&lt;h3&gt;&lt;br&gt;&lt;/h3&gt;&lt;h3&gt;&lt;br&gt;&lt;/h3&gt;&lt;h3&gt;&lt;br&gt;&lt;/h3&gt;&lt;h3&gt;&lt;br&gt;&lt;/h3&gt;&lt;h3&gt;&lt;br&gt;&lt;/h3&gt;&lt;h3&gt;&lt;br&gt;&lt;/h3&gt;&lt;h3&gt;&lt;br&gt;&lt;/h3&gt;&lt;h3&gt;&lt;br&gt;&lt;/h3&gt;&lt;h3&gt;&lt;br&gt;&lt;/h3&gt;&lt;h3&gt;http://localhost:8761&lt;/h3&gt;" style="rounded=1;whiteSpace=wrap;html=1;glass=1;" parent="1" vertex="1">
          <mxGeometry x="-60" y="70" width="330" height="400" as="geometry" />
        </mxCell>
        <mxCell id="5PtUK91K7ZAc5KCXhvZP-15" style="edgeStyle=orthogonalEdgeStyle;rounded=0;orthogonalLoop=1;jettySize=auto;html=1;exitX=0.9;exitY=0.5;exitDx=0;exitDy=0;exitPerimeter=0;" parent="1" source="5PtUK91K7ZAc5KCXhvZP-1" target="5PtUK91K7ZAc5KCXhvZP-14" edge="1">
          <mxGeometry relative="1" as="geometry" />
        </mxCell>
        <mxCell id="5PtUK91K7ZAc5KCXhvZP-1" value="" style="shape=actor;whiteSpace=wrap;html=1;" parent="1" vertex="1">
          <mxGeometry x="-270" y="220" width="40" height="60" as="geometry" />
        </mxCell>
        <mxCell id="5PtUK91K7ZAc5KCXhvZP-2" value="http://localhost:8060/api/productos" style="image;aspect=fixed;html=1;points=[];align=center;fontSize=12;image=img/lib/azure2/app_services/API_Management_Services.svg;" parent="1" vertex="1">
          <mxGeometry x="127.5" y="110" width="65" height="60" as="geometry" />
        </mxCell>
        <mxCell id="5PtUK91K7ZAc5KCXhvZP-23" style="edgeStyle=orthogonalEdgeStyle;rounded=0;orthogonalLoop=1;jettySize=auto;html=1;" parent="1" source="5PtUK91K7ZAc5KCXhvZP-3" target="5PtUK91K7ZAc5KCXhvZP-22" edge="1">
          <mxGeometry relative="1" as="geometry" />
        </mxCell>
        <mxCell id="5PtUK91K7ZAc5KCXhvZP-3" value="http://localhost:8062/clientes" style="image;aspect=fixed;html=1;points=[];align=center;fontSize=12;image=img/lib/azure2/integration/API_Management_Services.svg;" parent="1" vertex="1">
          <mxGeometry x="72.5" y="360" width="65" height="60" as="geometry" />
        </mxCell>
        <mxCell id="5PtUK91K7ZAc5KCXhvZP-5" value="http://localhost:8064/api/productos" style="image;aspect=fixed;html=1;points=[];align=center;fontSize=12;image=img/lib/azure2/app_services/API_Management_Services.svg;" parent="1" vertex="1">
          <mxGeometry x="120" y="243.6" width="65" height="60" as="geometry" />
        </mxCell>
        <mxCell id="5PtUK91K7ZAc5KCXhvZP-7" style="edgeStyle=orthogonalEdgeStyle;rounded=0;orthogonalLoop=1;jettySize=auto;html=1;" parent="1" source="5PtUK91K7ZAc5KCXhvZP-6" target="5PtUK91K7ZAc5KCXhvZP-2" edge="1">
          <mxGeometry relative="1" as="geometry" />
        </mxCell>
        <mxCell id="5PtUK91K7ZAc5KCXhvZP-8" style="edgeStyle=orthogonalEdgeStyle;rounded=0;orthogonalLoop=1;jettySize=auto;html=1;" parent="1" source="5PtUK91K7ZAc5KCXhvZP-6" target="5PtUK91K7ZAc5KCXhvZP-5" edge="1">
          <mxGeometry relative="1" as="geometry" />
        </mxCell>
        <mxCell id="5PtUK91K7ZAc5KCXhvZP-6" value="8090" style="sketch=0;points=[[0.015,0.015,0],[0.985,0.015,0],[0.985,0.985,0],[0.015,0.985,0],[0.25,0,0],[0.5,0,0],[0.75,0,0],[1,0.25,0],[1,0.5,0],[1,0.75,0],[0.75,1,0],[0.5,1,0],[0.25,1,0],[0,0.75,0],[0,0.5,0],[0,0.25,0]];verticalLabelPosition=bottom;html=1;verticalAlign=top;aspect=fixed;align=center;pointerEvents=1;shape=mxgraph.cisco19.rect;prIcon=load_balancer;fillColor=#FAFAFA;strokeColor=#005073;" parent="1" vertex="1">
          <mxGeometry x="-30" y="180.94" width="50" height="39.06" as="geometry" />
        </mxCell>
        <mxCell id="5PtUK91K7ZAc5KCXhvZP-11" style="edgeStyle=orthogonalEdgeStyle;rounded=0;orthogonalLoop=1;jettySize=auto;html=1;" parent="1" source="5PtUK91K7ZAc5KCXhvZP-10" target="5PtUK91K7ZAc5KCXhvZP-2" edge="1">
          <mxGeometry relative="1" as="geometry">
            <Array as="points">
              <mxPoint x="324" y="130" />
            </Array>
          </mxGeometry>
        </mxCell>
        <mxCell id="5PtUK91K7ZAc5KCXhvZP-12" style="edgeStyle=orthogonalEdgeStyle;rounded=0;orthogonalLoop=1;jettySize=auto;html=1;" parent="1" source="5PtUK91K7ZAc5KCXhvZP-10" target="5PtUK91K7ZAc5KCXhvZP-5" edge="1">
          <mxGeometry relative="1" as="geometry">
            <Array as="points">
              <mxPoint x="324" y="280" />
            </Array>
          </mxGeometry>
        </mxCell>
        <mxCell id="5PtUK91K7ZAc5KCXhvZP-10" value="Grafana" style="image;aspect=fixed;html=1;points=[];align=center;fontSize=12;image=img/lib/azure2/other/Grafana.svg;" parent="1" vertex="1">
          <mxGeometry x="290" y="171.2" width="68" height="52.800000000000004" as="geometry" />
        </mxCell>
        <mxCell id="5PtUK91K7ZAc5KCXhvZP-16" style="edgeStyle=orthogonalEdgeStyle;rounded=0;orthogonalLoop=1;jettySize=auto;html=1;" parent="1" source="5PtUK91K7ZAc5KCXhvZP-14" target="5PtUK91K7ZAc5KCXhvZP-6" edge="1">
          <mxGeometry relative="1" as="geometry">
            <Array as="points">
              <mxPoint x="-80" y="250" />
              <mxPoint x="-80" y="200" />
            </Array>
          </mxGeometry>
        </mxCell>
        <mxCell id="5PtUK91K7ZAc5KCXhvZP-17" style="edgeStyle=orthogonalEdgeStyle;rounded=0;orthogonalLoop=1;jettySize=auto;html=1;" parent="1" source="5PtUK91K7ZAc5KCXhvZP-14" target="5PtUK91K7ZAc5KCXhvZP-3" edge="1">
          <mxGeometry relative="1" as="geometry">
            <Array as="points">
              <mxPoint x="-80" y="250" />
              <mxPoint x="-80" y="390" />
            </Array>
          </mxGeometry>
        </mxCell>
        <mxCell id="5PtUK91K7ZAc5KCXhvZP-19" style="edgeStyle=orthogonalEdgeStyle;rounded=0;orthogonalLoop=1;jettySize=auto;html=1;" parent="1" source="5PtUK91K7ZAc5KCXhvZP-14" target="5PtUK91K7ZAc5KCXhvZP-18" edge="1">
          <mxGeometry relative="1" as="geometry">
            <Array as="points">
              <mxPoint x="-155" y="20" />
            </Array>
          </mxGeometry>
        </mxCell>
        <mxCell id="5PtUK91K7ZAc5KCXhvZP-21" style="edgeStyle=orthogonalEdgeStyle;rounded=0;orthogonalLoop=1;jettySize=auto;html=1;" parent="1" source="5PtUK91K7ZAc5KCXhvZP-14" target="5PtUK91K7ZAc5KCXhvZP-20" edge="1">
          <mxGeometry relative="1" as="geometry">
            <Array as="points">
              <mxPoint x="-155" y="540" />
            </Array>
          </mxGeometry>
        </mxCell>
        <mxCell id="5PtUK91K7ZAc5KCXhvZP-14" value="CloudGateway&lt;br&gt;http://localhost:8050/XXX" style="outlineConnect=0;dashed=0;verticalLabelPosition=bottom;verticalAlign=top;align=center;html=1;shape=mxgraph.aws3.customer_gateway;fillColor=#F58534;gradientColor=none;" parent="1" vertex="1">
          <mxGeometry x="-180" y="224" width="50" height="52" as="geometry" />
        </mxCell>
        <mxCell id="5PtUK91K7ZAc5KCXhvZP-18" value="" style="image;sketch=0;aspect=fixed;html=1;points=[];align=center;fontSize=12;image=img/lib/mscae/Docker.svg;" parent="1" vertex="1">
          <mxGeometry x="88" y="10" width="50" height="41" as="geometry" />
        </mxCell>
        <mxCell id="5PtUK91K7ZAc5KCXhvZP-20" value="countries&lt;div&gt;&lt;br&gt;&lt;/div&gt;" style="image;aspect=fixed;html=1;points=[];align=center;fontSize=12;image=img/lib/azure2/app_services/API_Management_Services.svg;" parent="1" vertex="1">
          <mxGeometry x="81" y="510" width="65" height="60" as="geometry" />
        </mxCell>
        <mxCell id="5PtUK91K7ZAc5KCXhvZP-22" value="Zipkin" style="image;aspect=fixed;html=1;points=[];align=center;fontSize=12;image=img/lib/azure2/app_services/App_Service_Certificates.svg;" parent="1" vertex="1">
          <mxGeometry x="288" y="358" width="70" height="64" as="geometry" />
        </mxCell>
      </root>
    </mxGraphModel>
  </diagram>
</mxfile>
